<?xml version="1.0"?><svg width="467" height="402" xmlns="http://www.w3.org/2000/svg">
 <title>Stone blocks</title>
 <metadata id="metadata7">image/svg+xml</metadata>
 <g>
  <g id="g3779"/>
  <title>Layer 1</title>
  <g id="svg_74">
   <path d="m394.073029,234.159378c-2.05127,0 -1.04007,-0.25 -9.245148,-0.25c-9.230774,0 -20.512878,0 -32.820526,0c-14.358978,0 -29.70874,-1.382782 -41.025665,-1.84433c-10.24585,-0.417908 -18.461548,0 -26.666687,0c-8.205109,0 -15.384583,0 -24.615356,0c-7.17952,0 -13.333359,0 -16.410294,0c-6.153839,0 -12.307678,0 -18.461517,0c-6.15387,0 -10.256439,0 -16.410248,0c-5.128235,0 -12.307709,0.92218 -17.435913,0.92218c-5.128204,0 -10.256424,0 -14.358978,0c-5.128204,0 -9.176117,0.45993 -16.410263,0.92215c-3.069183,0.196136 -7.179489,0 -12.307693,0c-3.076904,0 -6.153839,0 -11.282043,0c-3.076935,0 -6.153839,0 -10.256401,0c-4.102577,0 -7.179497,0 -10.256416,0c-2.051277,0 -4.10257,0 -6.153839,0c-2.051292,0 -4.102577,0 -5.128204,0c-2.051285,0 -4.102585,0 -7.179482,0c-2.051285,0 -4.102592,0 -5.128227,0c-2.05127,0 -3.07692,0 -5.128204,0c-1.025642,0 -2.051262,0 -3.076904,0c-1.02565,0 -2.0513,0 -3.076927,0c-1.02565,0 -2.051308,0 -3.07692,0c-1.025658,0 -2.051292,0 -3.076935,0c-1.025635,0 -2.051277,0 -3.076912,0c-1.025658,0 -2.129364,-0.352905 -3.076935,0c-1.340057,0.499084 -1.736862,1.345276 -3.07692,1.84436c-0.947571,0.352905 -2.129353,-0.352905 -3.076923,0c-2.680138,0.998169 -3.07692,1.84433 -4.10257,1.84433c-1.025635,0 -2.051277,0 -3.07692,0c-1.02565,0 -1.02565,1.84436 -1.02565,2.766541c0,0.92218 0.3004,1.192291 1.02565,1.84433c0.725235,0.652069 0.633156,1.914551 1.025642,2.766541c0.555084,1.204865 2.550003,1.681824 3.076927,3.68869c0.471275,1.795013 1.025635,4.61087 1.025635,7.377396c0,3.68869 0,7.37738 0,9.221741c0,2.76651 0,4.61087 0,7.37738c0,1.84436 0,2.766541 0,3.68869c0,0.92215 0.471291,1.893677 0,3.688721c-0.526924,2.006866 -1.025635,2.76651 -1.025635,3.68869c0,0.92215 -0.470573,2.483826 -1.02565,3.68869c-0.392494,0.85199 0,1.84433 0,2.76651c0,0.92218 0,1.84436 0,2.76651c0,0.92218 0,1.84436 0,2.766541c0,0.92218 0,1.84433 0,2.76651c0,0.92218 2.051285,1.84436 3.07692,1.84436c1.02565,0 0.844872,2.292755 3.076939,2.76651c0.998199,0.211884 2.351692,0.270111 3.07692,0.92218c1.45047,1.304138 -0.424843,2.384552 1.025635,3.68869c0.725235,0.652069 1.025635,0.92218 2.051277,0.92218c1.025658,0 2.051292,0 3.076935,0c1.025635,0 1.870491,0.448425 4.10257,0.92218c2.994606,0.63562 6.153847,0.92215 9.230751,0.92215c2.051285,0 5.128204,0 8.205147,0c2.051285,0 4.102554,0 5.128181,0c1.025665,0 2.762512,0.423096 4.102585,0.92215c0.947556,0.352936 3.076912,0 4.102554,0c1.02565,0 3.07692,1.844391 4.102554,1.844391c2.051292,0 4.10257,0 5.128235,0c2.051262,0 3.076912,0.922119 4.102539,0.922119c1.02565,0 2.051285,0.922211 3.076942,0.922211c1.025635,0 2.207413,-0.705811 4.102547,0c1.340073,0.499084 2.051285,0.92218 3.07692,0.92218c1.025635,0 2.351685,-0.6521 3.076935,0c0.725235,0.652069 2.051285,0.92218 3.07692,0.92218c1.025635,0 1.025635,0.92218 2.05127,0.92218c1.02565,0 2.0513,0 2.0513,0.92215c0,0.92218 0.177521,2.630707 1.025635,3.688721c1.340973,1.672791 1.722702,2.790314 2.05127,4.61084c0.519547,2.87851 3.076935,4.61087 4.10257,6.455231c1.025665,1.84436 2.0513,3.68869 4.10257,5.533051c2.051285,1.84433 3.07692,3.68869 4.10257,4.61087c2.05127,1.84433 2.05127,2.76651 3.07692,3.68869c1.025635,0.922119 1.51207,1.982056 2.051285,2.76651c1.205704,1.754059 4.130005,2.554626 5.128204,2.76651c2.23204,0.473755 2.896149,2.292786 5.128189,2.766541c0.99823,0.211884 2.129379,-0.352905 3.076935,0c2.680145,0.998138 3.788132,2.267395 5.128204,2.76651c1.895142,0.705811 3.978012,0.455078 7.179489,0.92218c2.024811,0.295441 4.10257,0 5.128204,0c2.051285,0 3.07692,0.92218 5.128204,0.92218c2.051285,0 3.788162,0.423065 5.12822,0.92215c1.895081,0.705841 4.10257,0 7.179504,0c3.076874,0 7.179443,0 11.282043,0c2.05127,0 3.377319,0.652069 4.102539,0c0.72522,-0.652039 -0.300385,-1.192261 -1.025635,-1.84433c-0.72522,-0.652069 -2.606354,-0.639496 -2.0513,-1.84436c0.392548,-0.85199 7.179504,0 15.384644,0c9.230774,0 11.308533,0.295441 13.333313,0c3.201447,-0.467102 5.12825,-0.92215 6.153854,-0.92215c3.076935,0 4.1026,0 6.15387,0c2.0513,0 3.076904,0 4.10257,0c2.051239,0 3.076935,0 4.102539,0c1.025665,0 2.05127,0 5.128204,0c1.025665,0 2.896179,-0.448425 5.128235,-0.92218c0.998169,-0.211884 3.076935,-0.92218 5.128204,-0.92218c1.025604,0 2.106171,0.423737 4.102539,0c2.232056,-0.473785 3.076965,-0.92218 5.128204,-0.92218c1.025635,0 2.896179,-0.448425 5.128235,-0.92218c1.996399,-0.423737 4.102539,-0.92215 6.153809,-0.92215c1.025696,0 1.870544,-0.448425 4.10257,-0.92218c1.996429,-0.423737 6.059296,-0.457611 10.256439,-0.92218c4.071808,-0.450714 8.110504,-1.379761 12.307678,-1.844391c4.071838,-0.450653 8.205139,-0.922119 10.256378,-0.922119c3.076965,0 3.37735,-0.270142 4.1026,-0.92218c0.72522,-0.652069 3.157349,-0.728394 6.15387,-1.84436c2.118774,-0.789093 3.547455,-1.561646 4.102509,-2.76651c0.392517,-0.85199 0,-1.84436 0,-2.76651c0,-1.84436 0.707001,-3.762726 0,-6.455261c-1.053802,-4.013733 -2.584015,-5.568756 -3.076904,-8.29953c-0.519501,-2.87851 -1.32608,-3.958801 -2.0513,-4.61087c-0.72522,-0.652069 -1.025604,-0.92218 0,-0.92218c1.025696,0 4.1026,0 5.128204,0c1.025696,0 2.0513,0 3.076965,0c2.05127,0 3.076935,0 5.128204,0c2.0513,0 4.102539,0 5.128174,0c1.025635,0 1.926727,-0.455048 5.128204,-0.92215c3.037231,-0.443176 5.128204,0 7.179504,0c1.025635,0 1.975159,-0.458832 7.179474,-0.92218c2.04129,-0.181763 4.10257,0 6.15387,0c1.025635,0 2.133606,-0.28656 5.128204,-0.92218c2.232025,-0.473755 3.866882,-1.869019 4.10257,-2.76651c0.526886,-2.006866 2.861359,-3.761017 4.10257,-6.455231c1.75531,-3.81015 2.05127,-7.37738 2.05127,-9.221741c0,-0.92215 0,-2.76651 0,-3.68869c0,-0.92218 0,-1.84433 0,-2.76651c0,-0.92218 0,-2.76651 0,-4.61087c0,-1.84436 -1.144501,-4.577515 -2.05127,-7.37738c-1.182312,-3.650604 -2.0513,-8.299561 -2.0513,-10.143921c0,-1.84433 -0.941162,-2.201111 -2.05127,-4.61087c-0.392548,-0.85199 -0.633148,-1.91452 -1.025665,-2.76651c-0.555054,-1.204865 -0.300415,-2.114471 -1.025665,-2.766541c-1.45047,-1.304138 -2.52182,-1.561646 -3.076874,-2.76651c-0.785034,-1.703964 -1.025665,-2.766525 -1.025665,-4.610886c0,-0.92218 -1.025635,-0.92218 -1.025635,-1.84433c0,-1.84436 0,-3.68869 0,-4.61087c0,-0.92218 -1.92627,-0.85968 -2.05127,-1.84436c-0.125,-0.98468 -1.32605,-2.114441 -2.0513,-2.76651l-0.55127,-1.35968c-0.72522,-0.652069 -0.625,-1.65686 -0.625,-2.57901c0,-0.92218 -0.373108,-2.142456 -1.463135,-3.704041c-1.090027,-1.561584 -4.775665,-1.10965 -4.400665,-1.40683l-0.1875,0.57782l-11.274994,12.785095" id="svg_73" stroke-linecap="null" stroke-linejoin="null" stroke-dasharray="null" stroke-width="1px" stroke="#333333" fill="#4c4c4c"/>
   <g id="svg_58">
    <path id="svg_59" d="m118.643166,251.123367c15.181618,2.366486 30.895317,-0.168732 46.748466,-0.845062c18.922867,-0.765839 37.70723,-2.446503 56.602768,-3.332947c4.967651,0 5.855469,0.466766 5.855469,-4.666046c-4.860321,-20.465698 -7.525665,-40.550873 -3.824677,-61.715988c2.935303,-15.126953 1.265106,-31.002426 -3.33197,-45.603668c-10.19101,-2.910461 -13.329102,-12.127167 -23.498505,-14.084824c-10.80127,0 -35.719452,-2.955986 -45.871658,-0.875732c-16.112213,2.09874 -34.432816,0.419266 -50.635765,-0.471313c-5.590324,0 -6.776329,0.861031 -3.174095,4.551735c1.608772,17.233253 -3.364258,35.267113 0.078957,55.083611c5.587158,18.850632 0.254631,38.776398 3.016174,57.992645c2.172447,5.972412 13.21389,12.751831 18.034836,13.96759z" stroke-width="1px" fill-rule="evenodd" fill="#cccccc"/>
    <path id="svg_60" d="m118.643166,251.123367c15.181618,2.366486 30.895317,-0.168732 46.748466,-0.845062c18.922867,-0.765839 37.70723,-2.446503 56.602768,-3.332947c4.967651,0 5.855469,0.466766 5.855469,-4.666046c-4.860321,-20.465698 -7.525665,-40.550873 -3.824677,-61.715988c2.935303,-15.126953 1.265106,-31.002426 -3.33197,-45.603668c-5.962036,2.755463 -11.05191,6.870392 -21.221344,4.91272c-10.801331,0 -33.442398,-4.622391 -43.594635,-2.54213c-16.112183,2.098679 -20.444687,0.419205 -36.647629,-0.471344c-5.590347,0 -4.173958,7.193573 -0.571648,10.884262c1.608788,17.233261 -4.014847,24.935059 -0.571754,44.751678c5.587242,18.850555 -1.697098,15.445923 1.064407,34.662216c2.172485,5.972382 -5.3284,22.750549 -0.507454,23.966309z" stroke-width="1px" fill-rule="evenodd" fill="#999999"/>
    <path id="svg_61" d="m219.823502,137.618851c-16.043121,1.020065 -31.404053,4.490097 -47.845062,1.413986c-16.636276,-1.977417 -33.416321,-1.898392 -50.145287,-2.828064c-2.590088,0 -3.341927,1.067322 -4.600586,2.356812c2.777153,13.318939 0.177589,27.0401 -0.460045,40.535583c1.672501,10.916718 2.367348,21.943665 2.760361,32.99411c-0.662292,12.556717 -0.46006,25.135727 -0.46006,37.707565" stroke-width="1px" stroke="#333333" fill-rule="evenodd" fill="none"/>
    <path id="svg_62" d="m118.643166,251.123367c15.181618,2.366486 30.895317,-0.168732 46.748466,-0.845062c18.922867,-0.765839 37.70723,-2.446503 56.602768,-3.332947c4.967651,0 5.855469,0.466766 5.855469,-4.666046c-4.860321,-20.465698 -7.525665,-40.550873 -3.824677,-61.715988c2.935303,-15.126953 1.265106,-31.002426 -3.33197,-45.603668c-10.19101,-2.910461 -13.329102,-12.127167 -23.498505,-14.084824c-10.80127,0 -35.719452,-2.955986 -45.871658,-0.875732c-16.112213,2.09874 -34.432816,0.419266 -50.635765,-0.471313c-5.590324,0 -6.776329,0.861031 -3.174095,4.551735c1.608772,17.233253 -3.364258,35.267113 0.078957,55.083611c5.587158,18.850632 0.254631,38.776398 3.016174,57.992645c2.172447,5.972412 13.21389,12.751831 18.034836,13.96759z" stroke-width="1px" stroke="#333333" fill-rule="evenodd" fill="none"/>
    <path id="svg_63" d="m96.054108,120.194412c14.787277,11.299896 7.097473,8.927902 22.651703,19.040833" stroke-width="1px" stroke="#333333" fill-rule="evenodd" fill="none"/>
    <path id="svg_64" d="m150.356155,137.618851c-4.852524,2.585709 -8.712631,8.869766 -11.961288,13.197662c-1.184708,3.743835 -2.202408,5.433319 -4.600555,7.541504" stroke-width="1px" stroke="#333333" fill-rule="evenodd" fill="none"/>
    <path id="svg_65" d="m155.416656,160.714722c-0.951233,3.898376 -10.297852,8.737411 -11.961227,15.554382c-1.145279,4.693466 -5.466293,9.738632 -8.740952,12.254913c-4.216003,3.239624 -6.823425,5.749603 -10.581131,10.369598c-2.133774,2.623428 -2.789207,3.889343 -3.680351,7.541473c-0.138084,0.565857 -0.717575,1.102798 -0.920113,1.414108" stroke-width="1px" stroke="#333333" fill-rule="evenodd" fill="none"/>
    <path id="svg_66" d="m222.583725,188.052704c-1.748566,6.611984 -5.007751,10.670166 -10.121033,14.611664c-2.788208,2.856705 -3.862518,6.029282 -5.520569,9.42691" stroke-width="1px" stroke="#333333" fill-rule="evenodd" fill="none"/>
    <path id="svg_67" d="m208.782242,230.945053c-5.263092,2.325226 -10.06601,5.563721 -14.721497,8.955536c-2.942413,2.823853 -3.910187,6.814972 -7.36084,8.955566" stroke-width="1px" stroke="#333333" fill-rule="evenodd" fill="none"/>
    <path id="svg_68" d="m105.271393,196.065536c0.347549,3.570236 3.362114,5.84935 5.980621,8.012878c1.094727,0.560837 7.527206,5.315033 7.820808,4.71347c-3.052765,14.354828 -9.509727,9.921265 -14.261467,13.668976" stroke-width="1px" stroke="#333333" fill-rule="evenodd" fill="none"/>
    <path id="svg_69" d="m150.816193,137.618851c-3.246826,1.330612 -6.268265,-5.950806 -8.740967,-8.484222c-2.529922,-2.592026 -7.014359,-2.30899 -10.581116,-3.770721" stroke-width="1px" stroke="#333333" fill-rule="evenodd" fill="none"/>
    <path id="svg_70" d="m97.450546,139.504196c0.551491,2.153305 8.047394,11.132355 10.121109,16.497086" stroke-width="1px" stroke="#333333" fill-rule="evenodd" fill="none"/>
    <path id="svg_71" d="m175.19873,120.179131c1.275299,2.613182 6.076874,4.34066 8.740967,7.070099c2.045746,2.096077 5.745865,1.173592 7.360794,2.828102" stroke-width="1px" stroke="#333333" fill-rule="evenodd" fill="none"/>
   </g>
   <g id="svg_1">
    <path id="path2544" d="m204.120377,268.91391c16.088409,2.575958 32.740662,-0.183655 49.54071,-0.919861c20.053116,-0.833618 39.959427,-2.663055 59.983597,-3.62796c5.264343,0 6.2052,0.508087 6.2052,-5.079071c-5.150635,-22.277206 -7.975159,-44.140213 -4.053131,-67.178757c3.110626,-16.465897 1.340668,-33.746582 -3.530975,-49.640244c-10.799713,-3.168076 -14.125244,-13.200592 -24.902039,-15.331543c-11.446411,0 -37.852951,-3.217628 -48.611526,-0.953247c-17.074585,2.284515 -36.489456,0.456375 -53.660187,-0.513031c-5.924225,0 -7.181061,0.937248 -3.363678,4.95462c1.70488,18.758652 -3.565201,38.388779 0.083679,59.95932c5.920868,20.51918 0.269836,42.208664 3.19632,63.125839c2.302216,6.501053 14.003143,13.880569 19.11203,15.203934z" stroke-width="1px" fill-rule="evenodd" fill="#cccccc"/>
    <path d="m204.120377,268.91391c16.088409,2.575958 32.740662,-0.183655 49.54071,-0.919861c20.053116,-0.833618 39.959427,-2.663055 59.983597,-3.62796c5.264343,0 6.2052,0.508087 6.2052,-5.079071c-5.150635,-22.277206 -7.975159,-44.140213 -4.053131,-67.178757c3.110626,-16.465897 1.340668,-33.746582 -3.530975,-49.640244c-6.318146,2.999359 -11.712036,7.478516 -22.488861,5.347565c-11.446472,0 -35.439896,-5.03154 -46.198502,-2.767151c-17.074554,2.284454 -21.665833,0.456314 -38.836548,-0.513062c-5.924255,0 -4.423294,7.830307 -0.605804,11.847672c1.704895,18.758667 -4.254654,27.142181 -0.605896,48.71286c5.920959,20.519104 -1.798477,16.81311 1.127991,37.730316c2.302246,6.501038 -5.646667,24.764328 -0.537781,26.087692z" id="path2501" stroke-width="1px" fill-rule="evenodd" fill="#999999"/>
    <path d="m311.344116,145.362579c-17.001373,1.110367 -33.279785,4.887543 -50.702789,1.539154c-17.629959,-2.152451 -35.412247,-2.066437 -53.140427,-3.078384c-2.744781,0 -3.541534,1.161789 -4.875366,2.565414c2.943024,14.497864 0.188217,29.433548 -0.487503,44.123566c1.772385,11.883011 2.508713,23.886002 2.925217,35.914566c-0.701843,13.668182 -0.487549,27.360596 -0.487549,41.045242" id="path2507" stroke-width="1px" stroke="#333333" fill-rule="evenodd" fill="none"/>
    <path id="path2546" d="m204.120377,268.91391c16.088409,2.575958 32.740662,-0.183655 49.54071,-0.919861c20.053116,-0.833618 39.959427,-2.663055 59.983597,-3.62796c5.264343,0 6.2052,0.508087 6.2052,-5.079071c-5.150635,-22.277206 -7.975159,-44.140213 -4.053131,-67.178757c3.110626,-16.465897 1.340668,-33.746582 -3.530975,-49.640244c-10.799713,-3.168076 -14.125244,-13.200592 -24.902039,-15.331543c-11.446411,0 -37.852951,-3.217628 -48.611526,-0.953247c-17.074585,2.284515 -36.489456,0.456375 -53.660187,-0.513031c-5.924225,0 -7.181061,0.937248 -3.363678,4.95462c1.70488,18.758652 -3.565201,38.388779 0.083679,59.95932c5.920868,20.51918 0.269836,42.208664 3.19632,63.125839c2.302216,6.501053 14.003143,13.880569 19.11203,15.203934z" stroke-width="1px" stroke="#333333" fill-rule="evenodd" fill="none"/>
    <path d="m180.182114,126.395836c15.670502,12.300102 7.521393,9.718147 24.004669,20.726219" id="path2503" stroke-width="1px" stroke="#333333" fill-rule="evenodd" fill="none"/>
    <path d="m237.727554,145.362579c-5.142365,2.81459 -9.233032,9.654877 -12.67572,14.36586c-1.255463,4.075211 -2.333954,5.914246 -4.875336,8.20903" id="path2516" stroke-width="1px" stroke="#333333" fill-rule="evenodd" fill="none"/>
    <path d="m243.090317,170.502777c-1.008057,4.243439 -10.912933,9.510803 -12.675659,16.931168c-1.213684,5.108902 -5.792786,10.600647 -9.263031,13.339661c-4.467834,3.526367 -7.230988,6.258514 -11.213135,11.287445c-2.26123,2.855652 -2.955811,4.233612 -3.900177,8.209015c-0.146332,0.615936 -0.760437,1.200409 -0.975067,1.539276" id="path2518" stroke-width="1px" stroke="#333333" fill-rule="evenodd" fill="none"/>
    <path d="m314.269196,200.260574c-1.852997,7.197235 -5.306854,11.614624 -10.725555,15.904999c-2.954742,3.109558 -4.093201,6.562958 -5.850311,10.261322" id="path2520" stroke-width="1px" stroke="#333333" fill-rule="evenodd" fill="none"/>
    <path d="m299.643372,246.949509c-5.577454,2.531067 -10.667236,6.056183 -15.6008,9.748245c-3.118164,3.073792 -4.143738,7.418213 -7.800476,9.74826" id="path2522" stroke-width="1px" stroke="#333333" fill-rule="evenodd" fill="none"/>
    <path d="m189.949936,208.982651c0.368301,3.886261 3.562943,6.367096 6.33783,8.722137c1.160126,0.610474 7.976807,5.785492 8.287933,5.130676c-3.235123,15.625427 -10.077728,10.799438 -15.113297,14.878876" id="path2524" stroke-width="1px" stroke="#333333" fill-rule="evenodd" fill="none"/>
    <path d="m238.215073,145.362579c-3.440765,1.448395 -6.64267,-6.477524 -9.263062,-9.235184c-2.68103,-2.821472 -7.433319,-2.513382 -11.213104,-4.104492" id="path2526" stroke-width="1px" stroke="#333333" fill-rule="evenodd" fill="none"/>
    <path d="m181.661957,147.41481c0.584427,2.343903 8.528076,12.117737 10.725616,17.957321" id="path2528" stroke-width="1px" stroke="#333333" fill-rule="evenodd" fill="none"/>
    <path d="m264.053955,126.379196c1.351471,2.844498 6.43985,4.724869 9.263062,7.695908c2.167938,2.281616 6.08905,1.277466 7.800446,3.07843" id="path2530" stroke-width="1px" stroke="#333333" fill-rule="evenodd" fill="none"/>
   </g>
   <g id="svg_44">
    <path id="svg_45" d="m103.04364,298.861542c16.655159,2.628326 33.893982,-0.187347 51.285843,-0.938568c20.759537,-0.850555 41.36705,-2.717163 62.096619,-3.701691c5.449768,0 6.423767,0.518402 6.423767,-5.182312c-5.332092,-22.730103 -8.256104,-45.037582 -4.195923,-68.544449c3.220215,-16.800659 1.387878,-34.432648 -3.655365,-50.649399c-11.180145,-3.232498 -14.622803,-13.468964 -25.779221,-15.643234c-11.84964,0 -39.186386,-3.283051 -50.323929,-0.972641c-17.676064,2.330963 -37.774834,0.465668 -55.550446,-0.523453c-6.132912,0 -7.434021,0.956299 -3.48217,5.055359c1.764954,19.139999 -3.690781,39.169159 0.086639,61.178253c6.129456,20.93634 0.279335,43.066727 3.308907,64.409134c2.383331,6.633209 14.496429,14.16272 19.785278,15.513z" stroke-width="1px" fill-rule="evenodd" fill="#cccccc"/>
    <path id="svg_46" d="m103.04364,298.861542c16.655159,2.628326 33.893982,-0.187347 51.285843,-0.938568c20.759537,-0.850555 41.36705,-2.717163 62.096619,-3.701691c5.449768,0 6.423767,0.518402 6.423767,-5.182312c-5.332092,-22.730103 -8.256104,-45.037582 -4.195923,-68.544449c3.220215,-16.800659 1.387878,-34.432648 -3.655365,-50.649399c-6.54071,3.060318 -12.124603,7.630539 -23.281021,5.456268c-11.849701,0 -36.688309,-5.133835 -47.825928,-2.823425c-17.67601,2.330917 -22.429047,0.465607 -40.204597,-0.523468c-6.132957,0 -4.579124,7.989487 -0.627151,12.088516c1.764961,19.140015 -4.404533,27.69397 -0.627228,49.703156c6.129509,20.936249 -1.861855,17.154877 1.167732,38.49736c2.383347,6.633209 -5.845596,25.267731 -0.556747,26.618011z" stroke-width="1px" fill-rule="evenodd" fill="#999999"/>
    <path id="svg_47" d="m214.044449,172.798523c-17.60022,1.132935 -34.452087,4.986893 -52.488815,1.570435c-18.251038,-2.196213 -36.659714,-2.108444 -55.01239,-3.140961c-2.841446,0 -3.666275,1.185394 -5.047089,2.617569c3.046661,14.792587 0.194839,30.031921 -0.504684,45.020569c1.834808,12.124573 2.597061,24.371552 3.028267,36.644684c-0.726555,13.94603 -0.504723,27.916794 -0.504723,41.879654" stroke-width="1px" stroke="#333333" fill-rule="evenodd" fill="none"/>
    <path id="svg_48" d="m103.04364,298.861542c16.655159,2.628326 33.893982,-0.187347 51.285843,-0.938568c20.759537,-0.850555 41.36705,-2.717163 62.096619,-3.701691c5.449768,0 6.423767,0.518402 6.423767,-5.182312c-5.332092,-22.730103 -8.256104,-45.037582 -4.195923,-68.544449c3.220215,-16.800659 1.387878,-34.432648 -3.655365,-50.649399c-11.180145,-3.232498 -14.622803,-13.468964 -25.779221,-15.643234c-11.84964,0 -39.186386,-3.283051 -50.323929,-0.972641c-17.676064,2.330963 -37.774834,0.465668 -55.550446,-0.523453c-6.132912,0 -7.434021,0.956299 -3.48217,5.055359c1.764954,19.139999 -3.690781,39.169159 0.086639,61.178253c6.129456,20.93634 0.279335,43.066727 3.308907,64.409134c2.383331,6.633209 14.496429,14.16272 19.785278,15.513z" stroke-width="1px" stroke="#333333" fill-rule="evenodd" fill="none"/>
    <path id="svg_49" d="m78.262115,153.446182c16.222527,12.550156 7.786331,9.915726 24.85025,21.147583" stroke-width="1px" stroke="#333333" fill-rule="evenodd" fill="none"/>
    <path id="svg_50" d="m137.834686,172.798523c-5.323532,2.871811 -9.558273,9.851151 -13.122253,14.657898c-1.299698,4.158051 -2.416168,6.03447 -5.047073,8.375916" stroke-width="1px" stroke="#333333" fill-rule="evenodd" fill="none"/>
    <path id="svg_51" d="m143.386353,198.449814c-1.043564,4.329681 -11.297363,9.704132 -13.122177,17.27533c-1.256439,5.212769 -5.996857,10.816162 -9.589325,13.61087c-4.625244,3.598053 -7.48571,6.385742 -11.608139,11.516907c-2.340912,2.913696 -3.059937,4.319702 -4.037544,8.375916c-0.151512,0.628418 -0.787254,1.224792 -1.00943,1.570526" stroke-width="1px" stroke="#333333" fill-rule="evenodd" fill="none"/>
    <path id="svg_52" d="m217.072586,228.812546c-1.918274,7.343536 -5.493805,11.850708 -11.103363,16.228333c-3.058838,3.17276 -4.237381,6.696381 -6.056396,10.46994" stroke-width="1px" stroke="#333333" fill-rule="evenodd" fill="none"/>
    <path id="svg_53" d="m201.931549,276.450653c-5.773941,2.58252 -11.042999,6.179291 -16.150375,9.946411c-3.227997,3.136261 -4.289703,7.569 -8.075256,9.946411" stroke-width="1px" stroke="#333333" fill-rule="evenodd" fill="none"/>
    <path id="svg_54" d="m88.374031,237.711929c0.381248,3.965271 3.688454,6.496521 6.561081,8.899475c1.201012,0.622864 8.25779,5.903076 8.579903,5.234955c-3.349106,15.9431 -10.432747,11.018997 -15.645706,15.181381" stroke-width="1px" stroke="#333333" fill-rule="evenodd" fill="none"/>
    <path id="svg_55" d="m138.339371,172.798523c-3.561951,1.477814 -6.876663,-6.609222 -9.589386,-9.422928c-2.775444,-2.87883 -7.695122,-2.564499 -11.608093,-4.187943" stroke-width="1px" stroke="#333333" fill-rule="evenodd" fill="none"/>
    <path id="svg_56" d="m79.794083,174.892471c0.605026,2.391556 8.828491,12.364075 11.103447,18.322372" stroke-width="1px" stroke="#333333" fill-rule="evenodd" fill="none"/>
    <path id="svg_57" d="m165.088455,153.429214c1.399048,2.902313 6.666687,4.820923 9.589325,7.852371c2.244339,2.328003 6.303589,1.303421 8.075256,3.140991" stroke-width="1px" stroke="#333333" fill-rule="evenodd" fill="none"/>
   </g>
   <g id="svg_2">
    <path id="svg_3" d="m264.520874,303.791718c17.561951,2.698151 35.739319,-0.192352 54.078064,-0.963501c21.889771,-0.873169 43.619263,-2.789368 65.477448,-3.800049c5.74646,0 6.773499,0.532196 6.773499,-5.319977c-5.622375,-23.333923 -8.705597,-46.234024 -4.424377,-70.365372c3.395538,-17.246964 1.46347,-35.347351 -3.85437,-51.994919c-11.788849,-3.318359 -15.418915,-13.826767 -27.182739,-16.058792c-12.494781,0 -41.319885,-3.37027 -53.063782,-0.998474c-18.638458,2.392883 -39.831482,0.478027 -58.574905,-0.537369c-6.466797,0 -7.838745,0.981705 -3.671753,5.189651c1.861053,19.648468 -3.891724,40.209732 0.09137,62.803497c6.463165,21.492493 0.294525,44.210831 3.489044,66.120193c2.513092,6.809418 15.285721,14.538971 20.862503,15.92511z" stroke-width="1px" fill-rule="evenodd" fill="#cccccc"/>
    <path id="svg_4" d="m264.520874,303.791718c17.561951,2.698151 35.739319,-0.192352 54.078064,-0.963501c21.889771,-0.873169 43.619263,-2.789368 65.477448,-3.800049c5.74646,0 6.773499,0.532196 6.773499,-5.319977c-5.622375,-23.333923 -8.705597,-46.234024 -4.424377,-70.365372c3.395538,-17.246964 1.46347,-35.347351 -3.85437,-51.994919c-6.89682,3.141632 -12.784729,7.833252 -24.548553,5.601212c-12.494843,0 -38.68576,-5.270203 -50.429779,-2.898407c-18.638367,2.392822 -23.650177,0.477966 -42.393494,-0.537384c-6.466888,0 -4.82843,8.201721 -0.661316,12.409653c1.861053,19.648483 -4.644318,28.429672 -0.661377,51.023514c6.463226,21.492477 -1.963196,17.610657 1.231323,39.520096c2.513092,6.809418 -6.163849,25.938995 -0.587067,27.325134z" stroke-width="1px" fill-rule="evenodd" fill="#999999"/>
    <path id="svg_5" d="m381.565063,174.379761c-18.558472,1.16304 -36.32782,5.119385 -55.346558,1.612167c-19.24469,-2.254562 -38.655609,-2.164459 -58.007507,-3.224411c-2.996124,0 -3.865875,1.216888 -5.321869,2.687103c3.212555,15.185562 0.205444,30.829727 -0.532166,46.216568c1.934723,12.446686 2.738464,25.019012 3.193146,37.618179c-0.766113,14.316528 -0.532196,28.658417 -0.532196,42.992188" stroke-width="1px" stroke="#333333" fill-rule="evenodd" fill="none"/>
    <path id="svg_6" d="m264.520874,303.791718c17.561951,2.698151 35.739319,-0.192352 54.078064,-0.963501c21.889771,-0.873169 43.619263,-2.789368 65.477448,-3.800049c5.74646,0 6.773499,0.532196 6.773499,-5.319977c-5.622375,-23.333923 -8.705597,-46.234024 -4.424377,-70.365372c3.395538,-17.246964 1.46347,-35.347351 -3.85437,-51.994919c-11.788849,-3.318359 -15.418915,-13.826767 -27.182739,-16.058792c-12.494781,0 -41.319885,-3.37027 -53.063782,-0.998474c-18.638458,2.392883 -39.831482,0.478027 -58.574905,-0.537369c-6.466797,0 -7.838745,0.981705 -3.671753,5.189651c1.861053,19.648468 -3.891724,40.209732 0.09137,62.803497c6.463165,21.492493 0.294525,44.210831 3.489044,66.120193c2.513092,6.809418 15.285721,14.538971 20.862503,15.92511z" stroke-width="1px" stroke="#333333" fill-rule="evenodd" fill="none"/>
    <path id="svg_7" d="m238.390121,154.513321c17.105743,12.88356 8.210266,10.179138 26.203232,21.709381" stroke-width="1px" stroke="#333333" fill-rule="evenodd" fill="none"/>
    <path id="svg_8" d="m301.206116,174.379761c-5.613373,2.948105 -10.078674,10.112854 -13.8367,15.047302c-1.370453,4.268509 -2.547729,6.194778 -5.321838,8.598419" stroke-width="1px" stroke="#333333" fill-rule="evenodd" fill="none"/>
    <path id="svg_9" d="m307.060028,200.712479c-1.100372,4.444717 -11.912445,9.961945 -13.836609,17.734283c-1.324829,5.351227 -6.323364,11.103485 -10.11142,13.972443c-4.877045,3.693604 -7.89325,6.555389 -12.240112,11.822876c-2.468384,2.991089 -3.226532,4.434418 -4.257385,8.598389c-0.15976,0.645142 -0.830109,1.257355 -1.064392,1.612274" stroke-width="1px" stroke="#333333" fill-rule="evenodd" fill="none"/>
    <path id="svg_10" d="m384.758087,231.881821c-2.022736,7.538635 -5.792908,12.165558 -11.707916,16.659454c-3.225342,3.25705 -4.468079,6.874268 -6.386108,10.748093" stroke-width="1px" stroke="#333333" fill-rule="evenodd" fill="none"/>
    <path id="svg_11" d="m368.792664,280.785461c-6.088287,2.651123 -11.644196,6.343445 -17.029663,10.210632c-3.403748,3.219604 -4.523254,7.770081 -8.514893,10.210663" stroke-width="1px" stroke="#333333" fill-rule="evenodd" fill="none"/>
    <path id="svg_12" d="m249.052567,241.017624c0.402039,4.070618 3.889282,6.669128 6.918304,9.135895c1.266403,0.639404 8.707382,6.059921 9.047043,5.374023c-3.531433,16.366653 -11.000778,11.311722 -16.497543,15.584671" stroke-width="1px" stroke="#333333" fill-rule="evenodd" fill="none"/>
    <path id="svg_13" d="m301.738281,174.379761c-3.75589,1.51709 -7.251099,-6.78479 -10.111481,-9.673248c-2.926575,-2.955307 -8.114105,-2.632614 -12.240112,-4.299194" stroke-width="1px" stroke="#333333" fill-rule="evenodd" fill="none"/>
    <path id="svg_14" d="m240.005508,176.529343c0.63797,2.455078 9.309143,12.692535 11.707947,18.809113" stroke-width="1px" stroke="#333333" fill-rule="evenodd" fill="none"/>
    <path id="svg_15" d="m329.943695,154.495895c1.47522,2.979431 7.029633,4.949005 10.11142,8.060974c2.366516,2.389847 6.646759,1.338058 8.514893,3.224442" stroke-width="1px" stroke="#333333" fill-rule="evenodd" fill="none"/>
   </g>
   <g id="svg_16">
    <path id="svg_17" d="m194.921341,342.529877c19.035461,2.959991 38.738007,-0.210999 58.615448,-1.057007c23.726425,-0.957886 47.279099,-3.060028 70.971268,-4.168793c6.228607,0 7.341827,0.583832 7.341827,-5.836243c-6.094116,-25.598328 -9.436035,-50.720703 -4.795593,-77.193832c3.68042,-18.920654 1.586243,-38.777557 -4.177765,-57.040649c-12.777985,-3.640381 -16.712646,-15.168549 -29.463501,-17.617188c-13.543152,0 -44.786789,-3.697327 -57.516068,-1.095367c-20.202271,2.625092 -43.173492,0.524414 -63.489532,-0.589508c-7.009399,0 -8.49646,1.076965 -3.979828,5.693268c2.017181,21.555206 -4.218262,44.111786 0.09903,68.898102c7.005432,23.578232 0.319244,48.501175 3.781799,72.536697c2.723938,7.470215 16.568207,15.94986 22.612915,17.47052z" stroke-width="1px" fill-rule="evenodd" fill="#cccccc"/>
    <path id="svg_18" d="m194.921341,342.529877c19.035461,2.959991 38.738007,-0.210999 58.615448,-1.057007c23.726425,-0.957886 47.279099,-3.060028 70.971268,-4.168793c6.228607,0 7.341827,0.583832 7.341827,-5.836243c-6.094116,-25.598328 -9.436035,-50.720703 -4.795593,-77.193832c3.68042,-18.920654 1.586243,-38.777557 -4.177765,-57.040649c-7.475494,3.446503 -13.857422,8.593414 -26.608276,6.144775c-13.543213,0 -41.931686,-5.781647 -54.661057,-3.179688c-20.202209,2.625031 -25.634521,0.524353 -45.9505,-0.589539c-7.00946,0 -5.233551,8.99765 -0.716797,13.613922c2.017212,21.555237 -5.033997,31.188568 -0.716858,55.975021c7.005524,23.578125 -2.12793,19.319611 1.334625,43.355194c2.723969,7.470215 -6.68103,28.456177 -0.636322,29.976837z" stroke-width="1px" fill-rule="evenodd" fill="#999999"/>
    <path id="svg_19" d="m321.786041,200.559433c-20.115601,1.275909 -39.375885,5.61618 -59.990356,1.768616c-20.859421,-2.473358 -41.899002,-2.374512 -62.874588,-3.537323c-3.247528,0 -4.190247,1.334991 -5.768402,2.947876c3.482086,16.65921 0.222687,33.821533 -0.576813,50.701538c2.097046,13.654556 2.968231,27.446945 3.46106,41.268753c-0.830383,15.705841 -0.576843,31.439514 -0.576843,47.164276" stroke-width="1px" stroke="#333333" fill-rule="evenodd" fill="none"/>
    <path id="svg_20" d="m194.921341,342.529877c19.035461,2.959991 38.738007,-0.210999 58.615448,-1.057007c23.726425,-0.957886 47.279099,-3.060028 70.971268,-4.168793c6.228607,0 7.341827,0.583832 7.341827,-5.836243c-6.094116,-25.598328 -9.436035,-50.720703 -4.795593,-77.193832c3.68042,-18.920654 1.586243,-38.777557 -4.177765,-57.040649c-12.777985,-3.640381 -16.712646,-15.168549 -29.463501,-17.617188c-13.543152,0 -44.786789,-3.697327 -57.516068,-1.095367c-20.202271,2.625092 -43.173492,0.524414 -63.489532,-0.589508c-7.009399,0 -8.49646,1.076965 -3.979828,5.693268c2.017181,21.555206 -4.218262,44.111786 0.09903,68.898102c7.005432,23.578232 0.319244,48.501175 3.781799,72.536697c2.723938,7.470215 16.568207,15.94986 22.612915,17.47052z" stroke-width="1px" stroke="#333333" fill-rule="evenodd" fill="none"/>
    <path id="svg_21" d="m166.598129,178.765091c18.540985,14.13382 8.899139,11.166962 28.401764,23.816132" stroke-width="1px" stroke="#333333" fill-rule="evenodd" fill="none"/>
    <path id="svg_22" d="m234.684616,200.559433c-6.084351,3.234192 -10.924316,11.094238 -14.99765,16.507538c-1.485443,4.682739 -2.761475,6.795929 -5.768372,9.432831" stroke-width="1px" stroke="#333333" fill-rule="evenodd" fill="none"/>
    <path id="svg_23" d="m241.029709,229.447556c-1.192719,4.876038 -12.911957,10.92868 -14.997559,19.455261c-1.436005,5.870544 -6.853912,12.181015 -10.959808,15.328384c-5.286255,4.052063 -8.555542,7.191528 -13.26712,12.970184c-2.675476,3.281372 -3.497253,4.864777 -4.614594,9.432831c-0.173157,0.707733 -0.89975,1.379364 -1.153687,1.768707" stroke-width="1px" stroke="#333333" fill-rule="evenodd" fill="none"/>
    <path id="svg_24" d="m325.246948,263.641663c-2.192444,8.270203 -6.278961,13.34613 -12.690247,18.276154c-3.495972,3.57312 -4.842957,7.541351 -6.921936,11.791077" stroke-width="1px" stroke="#333333" fill-rule="evenodd" fill="none"/>
    <path id="svg_25" d="m307.941986,317.291046c-6.599121,2.908386 -12.621216,6.959015 -18.458527,11.201508c-3.689331,3.532013 -4.902771,8.524109 -9.22934,11.201508" stroke-width="1px" stroke="#333333" fill-rule="evenodd" fill="none"/>
    <path id="svg_26" d="m178.155197,273.664032c0.43576,4.465637 4.215607,7.316315 7.498779,10.022461c1.37265,0.701477 9.437958,6.64798 9.806122,5.895538c-3.827759,17.954895 -11.923767,12.409424 -17.881744,17.097046" stroke-width="1px" stroke="#333333" fill-rule="evenodd" fill="none"/>
    <path id="svg_27" d="m235.261429,200.559433c-4.071014,1.664307 -7.859467,-7.443207 -10.959869,-10.611969c-3.172119,-3.242096 -8.794891,-2.888092 -13.26709,-4.7164" stroke-width="1px" stroke="#333333" fill-rule="evenodd" fill="none"/>
    <path id="svg_28" d="m168.349045,202.917618c0.691498,2.693329 10.09024,13.924255 12.690308,20.634399" stroke-width="1px" stroke="#333333" fill-rule="evenodd" fill="none"/>
    <path id="svg_29" d="m265.833405,178.745987c1.598999,3.268555 7.619476,5.42926 10.959808,8.843231c2.565094,2.621765 7.204468,1.467896 9.22934,3.537354" stroke-width="1px" stroke="#333333" fill-rule="evenodd" fill="none"/>
   </g>
   <g id="svg_30">
    <path id="svg_31" d="m174.412949,186.913879c16.881836,2.575974 34.355316,-0.183624 51.983887,-0.919861c21.042084,-0.833618 41.93013,-2.663025 62.941849,-3.627945c5.523926,0 6.5112,0.508087 6.5112,-5.079056c-5.404663,-22.277222 -8.368469,-44.140228 -4.253052,-67.178749c3.264038,-16.465904 1.406799,-33.74659 -3.705109,-49.64024c-11.332306,-3.168083 -14.821838,-13.200592 -26.130096,-15.331551c-12.010941,0 -39.719772,-3.217636 -51.008896,-0.953255c-17.916656,2.284515 -38.289001,0.456383 -56.306564,-0.513023c-6.216385,0 -7.535202,0.937241 -3.529572,4.954628c1.788971,18.758656 -3.741013,38.388752 0.08783,59.959309c6.21286,20.519211 0.283127,42.208664 3.353943,63.125839c2.415756,6.501038 14.693741,13.880539 20.054581,15.203903z" stroke-width="1px" fill-rule="evenodd" fill="#cccccc"/>
    <path id="svg_32" d="m174.412949,186.913879c16.881836,2.575974 34.355316,-0.183624 51.983887,-0.919861c21.042084,-0.833618 41.93013,-2.663025 62.941849,-3.627945c5.523926,0 6.5112,0.508087 6.5112,-5.079056c-5.404663,-22.277222 -8.368469,-44.140228 -4.253052,-67.178749c3.264038,-16.465904 1.406799,-33.74659 -3.705109,-49.64024c-6.62973,2.999359 -12.289642,7.478519 -23.5979,5.347561c-12.011002,0 -37.187698,-5.031544 -48.476913,-2.767162c-17.916595,2.284466 -22.734314,0.456322 -40.751801,-0.513054c-6.216461,0 -4.641449,7.830303 -0.635712,11.847668c1.789001,18.758667 -4.464478,27.142181 -0.635773,48.712852c6.212952,20.519112 -1.887177,16.813103 1.183655,37.730324c2.415771,6.501038 -5.925171,24.764297 -0.564331,26.087662z" stroke-width="1px" fill-rule="evenodd" fill="#999999"/>
    <path id="svg_33" d="m286.924622,63.362583c-17.839783,1.110378 -34.921066,4.887539 -53.203262,1.539165c-18.499451,-2.15247 -37.158691,-2.066448 -55.761169,-3.078396c-2.880127,0 -3.716187,1.161789 -5.115814,2.565411c3.088165,14.497864 0.19751,29.433563 -0.511536,44.123566c1.859802,11.883011 2.632416,23.885986 3.069489,35.914566c-0.73645,13.668182 -0.511597,27.36058 -0.511597,41.045227" stroke-width="1px" stroke="#333333" fill-rule="evenodd" fill="none"/>
    <path id="svg_34" d="m174.412949,186.913879c16.881836,2.575974 34.355316,-0.183624 51.983887,-0.919861c21.042084,-0.833618 41.93013,-2.663025 62.941849,-3.627945c5.523926,0 6.5112,0.508087 6.5112,-5.079056c-5.404663,-22.277222 -8.368469,-44.140228 -4.253052,-67.178749c3.264038,-16.465904 1.406799,-33.74659 -3.705109,-49.64024c-11.332306,-3.168083 -14.821838,-13.200592 -26.130096,-15.331551c-12.010941,0 -39.719772,-3.217636 -51.008896,-0.953255c-17.916656,2.284515 -38.289001,0.456383 -56.306564,-0.513023c-6.216385,0 -7.535202,0.937241 -3.529572,4.954628c1.788971,18.758656 -3.741013,38.388752 0.08783,59.959309c6.21286,20.519211 0.283127,42.208664 3.353943,63.125839c2.415756,6.501038 14.693741,13.880539 20.054581,15.203903z" stroke-width="1px" stroke="#333333" fill-rule="evenodd" fill="none"/>
    <path id="svg_35" d="m149.294113,44.395824c16.443329,12.30011 7.892319,9.71817 25.188477,20.726246" stroke-width="1px" stroke="#333333" fill-rule="evenodd" fill="none"/>
    <path id="svg_36" d="m209.677536,63.362583c-5.395996,2.814594 -9.688385,9.654881 -13.300873,14.365871c-1.317383,4.075195 -2.449036,5.91423 -5.115753,8.209023" stroke-width="1px" stroke="#333333" fill-rule="evenodd" fill="none"/>
    <path id="svg_37" d="m215.304764,88.502792c-1.05777,4.243423 -11.451141,9.510811 -13.300781,16.931152c-1.273529,5.108887 -6.078491,10.600647 -9.719849,13.339676c-4.688202,3.526352 -7.587616,6.258499 -11.766144,11.287445c-2.372772,2.855637 -3.101563,4.233612 -4.092499,8.209015c-0.153564,0.615921 -0.797974,1.200409 -1.023163,1.539246" stroke-width="1px" stroke="#333333" fill-rule="evenodd" fill="none"/>
    <path id="svg_38" d="m289.993988,118.260559c-1.944397,7.197235 -5.568604,11.614624 -11.254517,15.905029c-3.100464,3.109543 -4.295044,6.562943 -6.138824,10.261307" stroke-width="1px" stroke="#333333" fill-rule="evenodd" fill="none"/>
    <path id="svg_39" d="m274.64682,164.949524c-5.852509,2.531052 -11.193268,6.056152 -16.370178,9.74823c-3.271957,3.073776 -4.348099,7.418198 -8.185196,9.74823" stroke-width="1px" stroke="#333333" fill-rule="evenodd" fill="none"/>
    <path id="svg_40" d="m159.543655,126.982635c0.386459,3.886276 3.738678,6.367111 6.650391,8.722153c1.217346,0.610474 8.370178,5.785477 8.696686,5.130661c-3.394684,15.625443 -10.574738,10.799438 -15.858658,14.878891" stroke-width="1px" stroke="#333333" fill-rule="evenodd" fill="none"/>
    <path id="svg_41" d="m210.189102,63.362583c-3.610443,1.448383 -6.970276,-6.477531 -9.71991,-9.235176c-2.813232,-2.821472 -7.799866,-2.513397 -11.766113,-4.1045" stroke-width="1px" stroke="#333333" fill-rule="evenodd" fill="none"/>
    <path id="svg_42" d="m150.846939,65.414825c0.613266,2.343903 8.948669,12.117737 11.254578,17.957306" stroke-width="1px" stroke="#333333" fill-rule="evenodd" fill="none"/>
    <path id="svg_43" d="m237.302261,44.3792c1.418091,2.844498 6.757416,4.724869 9.719849,7.695915c2.274872,2.281624 6.389374,1.277451 8.18515,3.078423" stroke-width="1px" stroke="#333333" fill-rule="evenodd" fill="none"/>
   </g>
  </g>
 </g>
</svg>